<svg width="734" height="89" viewBox="0 0 734 89" fill="none" xmlns="http://www.w3.org/2000/svg">
<rect x="357" y="19" width="271" height="35" fill="#FFDE00"/>
<rect x="94" y="51" width="225" height="35" fill="#DE2910"/>
<path d="M120.565 19.904V21.56L114.301 22.28V65.696L132.229 65.48L135.973 57.272H138.277L137.413 68H98.4605V66.272L104.725 65.624V22.28L98.4605 21.56V19.904H120.565ZM159.283 57.992C159.283 60.824 159.619 62.888 160.291 64.184C161.011 65.48 162.427 66.128 164.539 66.128C166.651 66.128 168.739 64.808 170.803 62.168C172.867 59.528 173.899 57.248 173.899 55.328V35.168L168.211 34.88V33.224L183.115 32.288V65.696L188.947 65.984V67.64L174.187 68.504L174.547 61.304H173.827C171.043 66.248 167.011 68.72 161.731 68.72C154.051 68.72 150.211 65.024 150.211 57.632C150.211 50.24 150.475 42.752 151.003 35.168L145.675 34.88V33.224L160.003 32.432C159.523 43.28 159.283 51.8 159.283 57.992ZM222.283 44.528C222.523 43.568 222.643 42.488 222.643 41.288C222.643 40.04 222.283 38.768 221.563 37.472C220.507 35.36 218.899 34.304 216.739 34.304C210.979 34.304 208.099 39.728 208.099 50.576C208.099 61.376 211.051 66.776 216.955 66.776C221.419 66.776 224.995 64.616 227.683 60.296C228.739 60.632 229.267 61.16 229.267 61.88C229.267 62.552 228.811 63.416 227.899 64.472C227.035 65.48 225.499 66.464 223.291 67.424C221.131 68.336 218.635 68.792 215.803 68.792C210.379 68.792 206.083 67.136 202.915 63.824C199.795 60.464 198.235 56 198.235 50.432C198.235 44.816 199.867 40.352 203.131 37.04C206.395 33.728 210.979 32.072 216.883 32.072C218.707 32.072 220.507 32.312 222.283 32.792C224.059 33.224 225.739 34.184 227.323 35.672C228.907 37.16 229.699 38.96 229.699 41.072C229.699 43.136 228.763 44.48 226.891 45.104C226.219 45.344 225.475 45.464 224.659 45.464C223.843 45.464 223.051 45.152 222.283 44.528ZM263.595 32.864H277.707V34.736L272.379 36.104L259.131 47.192L275.115 65.84L279.939 66.344V68H261.579V66.344L265.611 65.912L252.939 51.368V65.84L256.899 66.344V68H239.043V66.344L243.723 65.912V16.16L237.531 15.728V13.928L252.939 12.704V49.352L268.275 36.104L263.595 34.736V32.864ZM308.954 32.864H322.706V34.664L317.666 36.104L306.002 68C303.986 73.28 301.85 77.6 299.594 80.96C296.858 85.04 293.546 87.08 289.658 87.08C289.37 87.08 289.058 87.056 288.722 87.008C287.138 87.008 285.866 86.528 284.906 85.568C283.946 84.656 283.466 83.432 283.466 81.896C283.466 80.408 284.138 78.896 285.482 77.36C287.066 79.136 288.794 80.024 290.666 80.024C293.306 80.024 295.538 79.04 297.362 77.072C299.186 75.152 300.89 72.128 302.474 68L288.65 35.096L285.05 34.376V32.864H301.682V34.376L297.434 35.024L306.65 58.496L314.642 36.104L308.954 34.664V32.864ZM404.321 43.88C404.321 59.96 394.337 68 374.369 68H351.833V66.272L358.025 65.552V22.424L351.833 21.56V19.688C354.041 19.832 356.609 19.904 359.537 19.904H366.449L375.377 19.616C379.745 19.616 383.561 19.976 386.825 20.696C390.137 21.416 393.161 22.64 395.897 24.368C401.513 27.92 404.321 34.424 404.321 43.88ZM393.449 43.952C393.449 35.648 391.889 29.888 388.769 26.672C387.761 25.568 386.825 24.752 385.961 24.224C385.097 23.648 384.017 23.216 382.721 22.928C380.945 22.496 378.857 22.232 376.457 22.136H375.377C371.873 22.136 369.305 22.256 367.673 22.496V65.48L374.369 65.696C378.929 65.504 382.313 64.88 384.521 63.824C390.473 60.992 393.449 54.368 393.449 43.952ZM429.061 41.36C429.877 38.768 431.365 36.56 433.525 34.736C435.733 32.912 437.725 32 439.501 32C441.325 32 442.549 32.456 443.173 33.368C443.797 34.232 444.109 34.952 444.109 35.528C444.109 37.496 443.389 38.912 441.949 39.776C440.989 39.008 439.549 38.624 437.629 38.624C435.757 38.624 433.885 39.224 432.013 40.424C430.141 41.576 429.205 42.848 429.205 44.24V65.912L435.685 66.344V68H415.597V66.344L420.349 65.984V35.24L414.517 34.952V33.296L429.205 32.504L428.773 41.36H429.061ZM473.314 51.152C467.746 51.152 464.242 52.616 462.802 55.544C462.178 56.792 461.866 58.352 461.866 60.224C461.866 63.44 462.97 65.312 465.178 65.84C465.514 65.936 465.874 65.984 466.258 65.984C467.794 65.984 469.33 65.192 470.866 63.608C472.402 61.976 473.218 59.888 473.314 57.344V51.152ZM461.794 44.096C460.738 44.816 459.634 45.176 458.482 45.176C457.33 45.176 456.346 44.792 455.53 44.024C454.714 43.256 454.306 42.128 454.306 40.64C454.306 39.104 454.762 37.736 455.674 36.536C456.586 35.336 457.762 34.448 459.202 33.872C462.034 32.672 464.722 32.072 467.266 32.072C472.93 32.072 476.794 33.08 478.858 35.096C480.922 37.064 481.954 40.112 481.954 44.24V65.912L488.002 66.344V67.928L474.25 68.792L473.602 62.744C471.346 66.824 467.458 68.864 461.938 68.864C459.442 68.864 457.282 68.12 455.458 66.632C453.682 65.096 452.794 62.96 452.794 60.224C452.842 56.576 454.666 53.84 458.266 52.016C461.866 50.144 466.882 49.208 473.314 49.208V43.016C473.314 40.088 472.906 37.832 472.09 36.248C471.274 34.664 469.762 33.872 467.554 33.872C465.346 33.872 463.69 34.784 462.586 36.608C461.866 37.808 461.506 39.08 461.506 40.424C461.506 41.768 461.602 42.992 461.794 44.096ZM517.632 32.432C519.792 31.616 520.872 29.408 520.872 25.808C520.872 24.848 520.752 23.96 520.512 23.144C521.328 22.568 522.144 22.28 522.96 22.28C523.776 22.28 524.544 22.424 525.264 22.712C526.992 23.432 527.856 24.656 527.856 26.384C527.856 28.064 527.112 29.528 525.624 30.776C524.184 32.024 522.192 32.816 519.648 33.152C522.528 34.112 524.736 35.624 526.272 37.688C527.808 39.704 528.576 42.224 528.576 45.248C528.576 48.224 527.088 51.008 524.112 53.6C521.136 56.144 517.56 57.416 513.384 57.416C509.208 57.416 507.12 58.544 507.12 60.8C507.12 61.904 507.888 62.672 509.424 63.104C511.008 63.488 514.104 63.896 518.712 64.328C523.32 64.712 526.8 65.576 529.152 66.92C531.504 68.216 532.68 70.304 532.68 73.184C532.68 76.928 530.832 80.12 527.136 82.76C523.488 85.4 518.712 86.72 512.808 86.72C506.952 86.72 502.632 85.808 499.848 83.984C497.064 82.208 495.672 79.832 495.672 76.856C495.672 74.936 496.368 73.088 497.76 71.312C499.152 69.536 501.192 68.288 503.88 67.568C500.52 66.32 498.84 64.568 498.84 62.312C498.84 60.728 499.656 59.432 501.288 58.424C502.92 57.416 504.744 56.888 506.76 56.84C503.544 55.976 501.048 54.488 499.272 52.376C497.544 50.216 496.68 47.696 496.68 44.816C496.68 41.12 498.144 38.072 501.072 35.672C504 33.272 507.936 32.072 512.88 32.072C514.608 32.072 516.192 32.192 517.632 32.432ZM503.376 76.064C503.376 78.704 504.168 80.744 505.752 82.184C507.336 83.672 509.712 84.416 512.88 84.416C516.096 84.416 518.88 83.576 521.232 81.896C523.632 80.216 524.832 78.224 524.832 75.92C524.88 73.616 524.232 72.128 522.888 71.456C521.592 70.784 519.24 70.232 515.832 69.8L514.968 69.728C511.176 69.248 508.536 68.888 507.048 68.648C505.992 69.224 505.104 70.208 504.384 71.6C503.712 72.992 503.376 74.48 503.376 76.064ZM512.376 55.976C514.632 55.976 516.312 54.944 517.416 52.88C518.52 50.816 519.072 48.128 519.072 44.816C519.072 37.376 517.008 33.656 512.88 33.656C510.624 33.656 508.944 34.664 507.84 36.68C506.736 38.648 506.184 41.36 506.184 44.816C506.184 52.256 508.248 55.976 512.376 55.976ZM572.732 63.608C569.372 67.064 564.788 68.792 558.98 68.792C553.172 68.792 548.588 67.064 545.228 63.608C541.868 60.152 540.188 55.76 540.188 50.432C540.188 45.104 541.868 40.712 545.228 37.256C548.588 33.8 553.172 32.072 558.98 32.072C564.788 32.072 569.372 33.8 572.732 37.256C576.092 40.712 577.772 45.104 577.772 50.432C577.772 55.76 576.092 60.152 572.732 63.608ZM550.196 50.432C550.196 61.52 553.124 67.064 558.98 67.064C564.836 67.064 567.764 61.52 567.764 50.432C567.764 45.008 567.116 40.904 565.82 38.12C564.524 35.288 562.244 33.872 558.98 33.872C555.716 33.872 553.436 35.288 552.14 38.12C550.844 40.904 550.196 45.008 550.196 50.432ZM616.912 65.912L617.344 43.088C617.344 40.256 616.984 38.192 616.264 36.896C615.544 35.6 614.104 34.952 611.944 34.952C609.784 34.952 607.672 36.248 605.608 38.84C603.592 41.384 602.536 43.592 602.44 45.464V65.912L607.84 66.344V68H588.544V66.344L593.296 65.912V35.24L587.392 34.952V33.44L602.152 32.576L601.792 39.92H602.512C603.808 37.52 605.56 35.672 607.768 34.376C609.976 33.032 612.352 32.36 614.896 32.36C622.576 32.36 626.416 36.056 626.416 43.448C626.416 48.776 626.248 56.264 625.912 65.912L630.88 66.344V68H613.456V66.344L616.912 65.912Z" fill="black"/>
</svg>